Coordinates
version=1
nRows=7
nColumns=40
inDegrees=yes

Units are S.I. units (second, meters, Newtons, ...)
Angles are in degrees.

endheader
time	pelvis_tilt	pelvis_list	pelvis_rotation	pelvis_tx	pelvis_ty	pelvis_tz	hip_flexion_r	hip_adduction_r	hip_rotation_r	knee_angle_r	knee_angle_r_beta	ankle_angle_r	subtalar_angle_r	mtp_angle_r	hip_flexion_l	hip_adduction_l	hip_rotation_l	knee_angle_l	knee_angle_l_beta	ankle_angle_l	subtalar_angle_l	mtp_angle_l	lumbar_extension	lumbar_bending	lumbar_rotation	arm_flex_r	arm_add_r	arm_rot_r	elbow_flex_r	pro_sup_r	wrist_flex_r	wrist_dev_r	arm_flex_l	arm_add_l	arm_rot_l	elbow_flex_l	pro_sup_l	wrist_flex_l	wrist_dev_l
     26.86500000	     -6.96758745	     -4.53095880	      2.38837950	      1.01246618	      0.91844594	      0.44889020	     -0.11583471	     -1.16287093	    -17.51675894	     24.03385274	     24.03385274	     14.04319473	      2.93592950	    -13.75596786	     30.32790561	     -3.99361959	      0.61102253	     25.48248931	     25.48248931	      5.81855194	    -15.10187172	      9.01157404	     -9.91466842	      5.98311429	      5.45738419	     35.72306742	    -20.07194879	      1.13385291	    110.68154182	     43.77156816	      0.00000000	      0.00000000	    -13.60281270	     -8.39893353	     -2.52754113	     33.60809356	     45.74927527	      0.00000000	      0.00000000
     26.87657143	     -6.89276739	     -4.39855796	      2.28880697	      1.01372748	      0.91976100	      0.44602854	      0.81819815	     -2.06181253	    -17.07860875	     27.00422245	     27.00422245	     12.95478373	      1.98957198	    -14.51549061	     29.56461197	     -3.74734587	      0.41943624	     25.54805915	     25.54805915	      6.42462041	    -15.20533475	      8.80850886	     -9.95941759	      5.94960936	      5.17463675	     33.68869997	    -20.34969775	      1.37513603	    109.80250361	     43.79345959	      0.00000000	      0.00000000	    -12.69468692	     -8.59342523	     -2.65717784	     34.35726069	     45.78455921	      0.00000000	      0.00000000
     26.88814286	     -6.91730110	     -4.37268340	      2.19415683	      1.01478496	      0.92078047	      0.44328811	      2.01600008	     -2.71745897	    -16.20277001	     29.95035099	     29.95035099	     10.45297148	     -0.54836150	    -18.19382332	     28.86717618	     -3.58349902	      0.39190899	     25.50937673	     25.50937673	      7.14968708	    -15.19492654	      8.84978083	     -9.93216748	      6.00112214	      5.28602081	     31.20428096	    -20.76772931	      0.43843181	    109.20579093	     43.90019639	      0.00000000	      0.00000000	    -12.30536318	     -8.80901123	     -3.16571566	     37.30597897	     45.88759489	      0.00000000	      0.00000000
     26.89971429	     -6.87694469	     -4.23681615	      2.11021012	      1.01581449	      0.92171865	      0.44051864	      3.43263519	     -3.66967772	    -15.65379772	     33.54944943	     33.54944943	      8.83642199	     -1.83421267	    -18.80249835	     28.08794697	     -3.34217584	      0.16890347	     25.45990396	     25.45990396	      7.77207643	    -15.01531033	      8.55388844	     -9.93432745	      5.97271269	      5.04757864	     29.02950886	    -21.04347784	      0.58136425	    107.86390549	     43.93954027	      0.00000000	      0.00000000	    -11.29590726	     -8.95486767	     -3.29551342	     38.24657351	     45.92420349	      0.00000000	      0.00000000
     26.91128571	     -6.79343798	     -4.09800876	      2.05522806	      1.01669415	      0.92255545	      0.43786686	      4.96969208	     -4.54559724	    -14.89640040	     37.27630875	     37.27630875	      6.93473636	     -3.51964609	    -19.15005322	     27.29420896	     -3.10901891	     -0.09003598	     25.43708791	     25.43708791	      8.35230851	    -14.81878740	      8.23359290	     -9.98541272	      5.94235189	      4.85857456	     26.75020905	    -21.23574294	      0.53567155	    106.34254248	     43.98792140	      0.00000000	      0.00000000	    -10.25575824	     -9.16993161	     -3.48188577	     39.51065043	     45.96816125	      0.00000000	      0.00000000
     26.92285714	     -6.79492109	     -4.20405708	      1.96350336	      1.01735023	      0.92312092	      0.43570311	      6.77293839	     -4.86631271	    -13.60745164	     40.97532349	     40.97532349	      4.51984254	     -6.42649762	    -19.43112561	     26.65223397	     -3.19140064	     -0.32616510	     25.45610994	     25.45610994	      8.93069211	    -14.43433826	      7.66715942	     -9.94544398	      6.07962819	      4.96687980	     24.31855782	    -21.29681669	     -0.71151928	    103.97064216	     44.11889366	      0.00000000	      0.00000000	     -9.72947379	     -9.50507970	     -3.79086182	     42.61623744	     46.03908415	      0.00000000	      0.00000000
     26.93442857	     -6.72022206	     -3.96694434	      1.90222462	      1.01789180	      0.92361797	      0.43330485	      8.64210011	     -5.77758640	    -12.79729501	     44.91925639	     44.91925639	      2.42250297	     -7.89039746	    -19.12847658	     25.84363223	     -2.90314506	     -0.73165166	     25.33721296	     25.33721296	      9.45654969	    -14.06288181	      7.28260009	    -10.03165193	      5.94692627	      4.66250087	     22.10920884	    -21.23533344	     -0.74308741	    102.30494130	     44.17128643	      0.00000000	      0.00000000	     -8.66829536	     -9.84050886	     -3.93138579	     43.98152442	     46.07963333	      0.00000000	      0.00000000
